<?xml version="1.0" encoding="UTF-8" standalone="no"?>
<!-- Created with Inkscape (http://www.inkscape.org/) -->

<svg
   xmlns:dc="http://purl.org/dc/elements/1.1/"
   xmlns:cc="http://creativecommons.org/ns#"
   xmlns:rdf="http://www.w3.org/1999/02/22-rdf-syntax-ns#"
   xmlns:svg="http://www.w3.org/2000/svg"
   xmlns="http://www.w3.org/2000/svg"
   xmlns:sodipodi="http://sodipodi.sourceforge.net/DTD/sodipodi-0.dtd"
   xmlns:inkscape="http://www.inkscape.org/namespaces/inkscape"
   width="210mm"
   height="297mm"
   viewBox="0 0 744.09448819 1052.3622047"
   id="svg2"
   version="1.1"
   inkscape:version="0.91 r13725"
   sodipodi:docname="lesson 2.svg">
  <defs
     id="defs4" />
  <sodipodi:namedview
     id="base"
     pagecolor="#ffffff"
     bordercolor="#666666"
     borderopacity="1.0"
     inkscape:pageopacity="0.0"
     inkscape:pageshadow="2"
     inkscape:zoom="2.8"
     inkscape:cx="252.82904"
     inkscape:cy="550.4305"
     inkscape:document-units="px"
     inkscape:current-layer="layer1"
     showgrid="false"
     inkscape:window-width="1600"
     inkscape:window-height="838"
     inkscape:window-x="0"
     inkscape:window-y="0"
     inkscape:window-maximized="1" />
  <metadata
     id="metadata7">
    <rdf:RDF>
      <cc:Work
         rdf:about="">
        <dc:format>image/svg+xml</dc:format>
        <dc:type
           rdf:resource="http://purl.org/dc/dcmitype/StillImage" />
        <dc:title />
      </cc:Work>
    </rdf:RDF>
  </metadata>
  <g
     inkscape:label="Layer 1"
     inkscape:groupmode="layer"
     id="layer1">
    <path
       style="fill:#000000"
       d="m 272.70715,401.88589 c -44.68096,-6.67625 -81.23811,-12.72363 -81.23811,-13.4386 0,-0.71497 15.94627,-24.26749 35.43617,-52.33892 l 35.43616,-51.03895 8.63013,3.81666 c 4.74656,2.09916 8.90392,3.81665 9.23855,3.81665 0.33466,0 14.76482,-17.64827 32.06706,-39.21839 17.30223,-21.57012 32.00997,-39.2184 32.68387,-39.2184 0.67391,0 6.48207,7.20338 12.90703,16.00751 6.42497,8.80413 12.22196,16.00751 12.88219,16.00751 0.66025,0 4.49728,-1.84264 8.52674,-4.09474 l 7.3263,-4.09475 3.78936,6.09569 c 2.71386,4.36562 41.50776,68.55142 43.57079,72.08935 0.11637,0.1996 5.45182,-1.12003 11.85654,-2.93251 6.4047,-1.81248 11.8487,-3.0563 12.0978,-2.76403 3.68142,4.31969 55.30082,78.29663 55.2972,79.24771 -0.006,1.68668 -144.31187,24.7532 -152.86668,24.435 -3.52165,-0.13094 -42.96015,-5.70056 -87.6411,-12.37679 z m 106.04973,9.24563 c 18.48567,-2.84856 16.91631,-1.28866 16.00751,-15.91099 -0.4402,-7.08289 -0.26012,-12.87748 0.40019,-12.87687 0.66031,8.8e-4 1.20056,5.36114 1.20056,11.91228 0,6.55113 0.64463,12.30956 1.43248,12.79648 1.42538,0.88093 17.70765,-1.69465 19.02195,-3.00895 0.81161,-0.81161 -13.62652,-71.43064 -14.85529,-72.65941 -0.46039,-0.4604 -3.37211,0.37178 -6.47049,1.84929 -4.31141,2.05597 -5.81127,2.21721 -6.39143,0.68709 -0.41693,-1.09962 -3.64761,-12.08404 -7.17933,-24.40982 -3.53171,-12.32578 -6.09185,-19.52917 -5.68922,-16.00751 0.40264,3.52165 1.97539,16.67795 3.49503,29.23621 l 2.76295,22.83319 5.17543,-0.97092 5.17544,-0.97091 1.12246,14.97159 c 0.61736,8.23436 0.78769,16.76495 0.3785,18.95686 -0.4092,2.19191 -0.84209,0.30917 -0.96199,-4.18385 -0.11989,-4.49302 -0.67199,-12.51275 -1.22688,-17.82161 -1.00114,-9.57852 -1.04703,-9.65084 -5.98862,-9.43913 l -4.97976,0.21334 -4.85878,-38.01782 c -2.67233,-20.90981 -4.47956,-38.01108 -4.01607,-38.00284 0.4635,0.008 4.64685,13.83707 9.29633,30.73072 4.6495,16.89365 8.80048,31.06259 9.22443,31.48653 0.42394,0.42396 3.37214,-0.46966 6.55152,-1.98581 3.17939,-1.51614 5.94011,-2.54566 6.13492,-2.28783 0.19482,0.25783 3.8087,17.39674 8.03087,38.08644 4.22219,20.6897 7.78633,37.76865 7.92031,37.9532 0.13399,0.18453 9.93726,-1.29634 21.78502,-3.29086 19.20291,-3.23273 21.48294,-3.95292 21.00309,-6.6342 -0.29606,-1.65428 -3.71767,-11.55262 -7.60357,-21.9963 -3.88589,-10.4437 -7.05285,-19.85504 -7.03767,-20.91413 0.0144,-1.05907 6.58107,8.15914 14.59088,20.48492 8.0098,12.32579 14.74366,22.61373 14.96414,22.8621 0.22046,0.24836 8.0928,-0.83215 17.49406,-2.40112 l 17.09321,-2.85272 -26.60177,-37.61764 c -14.63098,-20.68971 -27.08826,-37.77707 -27.68287,-37.97193 -0.59462,-0.19484 -6.01763,7.97879 -12.05115,18.16364 -6.03352,10.18486 -11.49038,17.90783 -12.12637,17.16217 -0.63599,-0.74567 -11.12538,-24.76674 -23.30975,-53.38016 -12.18436,-28.61343 -22.62087,-52.57458 -23.19222,-53.24703 -0.57138,-0.67244 -4.13563,4.18984 -7.92056,10.80507 -3.78495,6.61523 -7.36282,12.02769 -7.95084,12.02769 -0.58802,0 -5.67068,-9.29093 -11.2948,-20.64652 -16.34141,-32.99467 -10.38791,-36.1979 -47.67331,25.65023 -17.68071,29.32833 -32.75411,53.52616 -33.49647,53.77295 -0.74235,0.24678 -4.55989,-7.83 -8.48338,-17.94842 -3.9235,-10.11843 -7.61865,-17.86151 -8.21146,-17.20688 -0.59281,0.65465 -16.31001,23.16058 -34.92714,50.01318 l -33.8493,48.8229 5.2435,1.11214 c 2.88393,0.61168 9.92569,1.57557 15.64838,2.14198 l 10.40488,1.02982 20.76423,-22.46366 c 11.42034,-12.35502 21.04582,-22.18211 21.38996,-21.83798 0.34413,0.34415 -4.88757,11.12087 -11.62602,23.94827 -8.39513,15.98115 -11.60104,23.52928 -10.18468,23.97925 1.13686,0.36118 10.71108,1.82713 21.27603,3.25769 10.56496,1.43054 20.38203,2.94543 21.81571,3.36641 2.03357,0.59713 4.10174,-2.95446 9.40641,-16.15328 3.73983,-9.30527 7.0987,-16.61968 7.46415,-16.25424 0.36544,0.36545 -2.17505,7.77803 -5.64554,16.4724 -3.47049,8.69438 -6.15766,15.97189 -5.97149,16.17224 0.75636,0.81395 30.61116,4.83297 31.27491,4.21018 1.12749,-1.0579 22.55139,-106.6981 21.79238,-107.4571 -0.37315,-0.37316 -4.78474,0.85789 -9.80354,2.73566 -5.0188,1.87778 -9.39021,3.14902 -9.71425,2.82498 -0.32405,-0.32404 1.93171,-13.07726 5.01275,-28.34047 3.08106,-15.26322 5.58191,-28.88993 5.55745,-30.28158 -0.0245,-1.39166 -7.47331,16.19849 -16.55299,39.08924 -9.07968,22.89073 -16.33594,41.84676 -16.12502,42.12452 0.21093,0.27775 4.85132,-1.75036 10.31197,-4.50688 5.46066,-2.75653 10.14146,-4.78462 10.40181,-4.50688 0.6645,0.70897 -18.83681,49.43024 -19.51404,48.75302 -0.30435,-0.30434 3.35398,-10.56432 8.12961,-22.79993 4.77563,-12.23563 8.46395,-22.47383 8.19627,-22.75159 -0.26767,-0.27774 -4.97401,1.7602 -10.4585,4.52877 -9.89569,4.99533 -9.96427,5.00529 -8.98271,1.30537 2.00296,-7.54992 39.28129,-99.68933 39.35944,-97.28321 0.0445,1.36962 -3.05905,18.11747 -6.89678,37.21745 -4.48017,22.29757 -6.34225,34.72695 -5.20243,34.72644 0.97638,-3.9e-4 5.55699,-1.4382 10.17915,-3.19499 6.60648,-2.51098 8.40395,-2.72694 8.40395,-1.00969 0,1.20146 -4.95613,26.39389 -11.01365,55.98316 l -11.01363,53.7987 5.01082,0.86577 c 24.83786,4.29147 32.5323,4.67791 47.43072,2.38213 z m 95.04999,-15.66574 c 0.70688,-1.14373 -16.20856,-29.09785 -20.04357,-33.12365 -1.21867,-1.27929 5.37177,18.25053 10.6663,31.6081 1.11809,2.82082 7.89378,3.91591 9.37727,1.51555 z M 250.60919,376.52164 c 5.38157,-10.24604 9.5387,-18.87515 9.23806,-19.17577 -0.61644,-0.61646 -33.1617,33.904 -33.1617,35.17433 0,0.75595 5.09172,1.8171 11.47155,2.39075 1.8695,0.16809 5.5944,-5.33287 12.45209,-18.38931 z m 193.74027,-45.59525 c 5.38317,-8.91103 9.46753,-16.52191 9.07635,-16.91308 -0.61129,-0.61132 -7.74807,0.8992 -17.32331,3.66652 -2.0666,0.59725 -6.99095,-6.41485 -21.44682,-30.53947 -10.32035,-17.2231 -18.97804,-31.10097 -19.2393,-30.83971 -0.49117,0.49117 38.05074,90.82762 38.75146,90.82762 0.21672,0 4.79846,-7.29085 10.18162,-16.20188 z m -138.3523,-53.83098 c 14.6952,-24.43145 27.09454,-45.14117 27.5541,-46.02158 2.02827,-3.88564 -5.63063,5.21201 -27.62587,32.81539 -12.97848,16.28764 -24.5371,29.83633 -25.6858,30.1082 -1.1487,0.27187 -5.02423,-1.00337 -8.61228,-2.83384 -3.58805,-1.83049 -6.52373,-2.97211 -6.52373,-2.53694 0,0.43521 2.23626,6.39262 4.96948,13.23874 2.73322,6.84613 5.59675,14.06825 6.36338,16.04918 0.76665,1.98093 1.71977,3.60169 2.11805,3.60169 0.39829,0 12.74749,-19.98938 27.44267,-44.42084 z m 71.11116,-23.77286 c 2.78303,-4.93127 4.74343,-9.28256 4.35643,-9.66956 -0.38698,-0.387 -3.1822,0.75877 -6.21157,2.54615 l -5.50796,3.24977 -7.62748,-10.38811 c -4.19513,-5.71346 -7.9259,-10.3881 -8.29061,-10.3881 -0.36472,0 3.09849,7.56355 7.69601,16.80789 4.59751,9.24433 8.84646,16.80788 9.44212,16.80788 0.59566,0 3.36005,-4.03466 6.14306,-8.96592 z"
       id="path4147"
       inkscape:connector-curvature="0"
       inkscape:export-xdpi="90"
       inkscape:export-ydpi="90" />
    <path
       style="fill:#000000"
       d="m 554.97354,478.82212 -0.83381,-0.6419 -0.077,-98.49198 c -0.0756,-96.73929 -0.0656,-98.50681 0.56461,-99.32578 l 0.64158,-0.83381 74.47826,-0.0773 c 73.05676,-0.0758 74.49418,-0.0651 75.31208,0.56461 l 0.83381,0.6419 0.077,98.49197 c 0.0756,96.7393 0.0656,98.50682 -0.56462,99.32579 l -0.64157,0.83381 -74.47826,0.0773 c -73.05675,0.0758 -74.49417,0.065 -75.31207,-0.56461 z m 146.08345,-99.40308 0,-95.05429 -71.04058,0 -71.04058,0 0,95.05429 0,95.0543 71.04058,0 71.04058,0 0,-95.0543 z m -122.73678,68.20563 0,-1.83438 51.6962,0 51.69619,0 0,1.83438 0,1.83438 -51.69619,0 -51.6962,0 0,-1.83438 z m 0,-26.84867 0,-1.66762 51.6962,0 51.69619,0 0,1.66762 0,1.66762 -51.69619,0 -51.6962,0 0,-1.66762 z m 0,-26.68191 0,-1.66762 51.6962,0 51.69619,0 0,1.66762 0,1.66762 -51.69619,0 -51.6962,0 0,-1.66762 z m 0,-26.6819 0,-1.66762 51.6962,0 51.69619,0 0,1.66762 0,1.66761 -51.69619,0 -51.6962,0 0,-1.66761 z m 0,-26.68191 0,-1.66762 51.6962,0 51.69619,0 0,1.66762 0,1.66762 -51.69619,0 -51.6962,0 0,-1.66762 z m 0,-26.84867 0,-1.83438 51.6962,0 51.69619,0 0,1.83438 0,1.83438 -51.69619,0 -51.6962,0 0,-1.83438 z"
       id="path4153"
       inkscape:connector-curvature="0"
       inkscape:export-xdpi="90"
       inkscape:export-ydpi="90" />
    <path
       style="color:#000000;font-style:normal;font-variant:normal;font-weight:normal;font-stretch:normal;font-size:medium;line-height:normal;font-family:sans-serif;text-indent:0;text-align:start;text-decoration:none;text-decoration-line:none;text-decoration-style:solid;text-decoration-color:#000000;letter-spacing:normal;word-spacing:normal;text-transform:none;direction:ltr;block-progression:tb;writing-mode:lr-tb;baseline-shift:baseline;text-anchor:start;white-space:normal;clip-rule:nonzero;display:inline;overflow:visible;visibility:visible;opacity:1;isolation:auto;mix-blend-mode:normal;color-interpolation:sRGB;color-interpolation-filters:linearRGB;solid-color:#000000;solid-opacity:1;fill:#000000;fill-opacity:1;fill-rule:nonzero;stroke:none;stroke-width:1;stroke-linecap:butt;stroke-linejoin:miter;stroke-miterlimit:4;stroke-dasharray:none;stroke-dashoffset:0;stroke-opacity:1;color-rendering:auto;image-rendering:auto;shape-rendering:auto;text-rendering:auto;enable-background:accumulate"
       d="m 123.1708,459.99619 c -0.18743,0.0635 -0.32555,0.19004 -0.42361,0.31901 -0.56197,0.73909 -0.76084,1.89828 -0.78621,3.48127 -0.0254,1.58298 0.15526,3.59526 0.52124,6.00025 0.73194,4.80999 2.20847,11.18519 4.30581,18.69633 4.19469,15.02227 10.87342,34.5839 19.04324,55.13717 3.52473,8.86739 5.30691,13.38433 6.01769,15.95944 0.35539,1.28754 0.43789,2.073 0.36783,2.67588 -0.0701,0.60289 -0.29267,1.06516 -0.64152,1.73976 -0.82912,1.60334 -3.01678,7.07508 -4.94211,12.31256 -2.14939,5.84699 -3.64741,9.19906 -6.61562,12.46771 -2.96821,3.26864 -7.45412,6.48176 -15.56545,11.92903 -7.03801,4.72647 -11.58471,7.99697 -14.74265,10.79419 -3.15794,2.79723 -4.92736,5.13616 -6.3524,7.92829 -6.373046,12.48705 -4.447666,27.25193 4.69631,35.30077 2.21147,1.94661 5.43585,3.92521 7.41229,4.48014 9.96303,2.79733 21.26938,-2.51114 27.90068,-12.97848 2.2551,-3.55961 3.54641,-6.04625 4.35114,-10.04807 0.80474,-4.00183 1.13875,-9.50314 1.56021,-19.22628 0.26071,-6.01471 0.57291,-10.90989 0.92741,-14.60144 0.3545,-3.69155 0.76685,-6.20392 1.16798,-7.34082 1.21994,-3.45769 6.17895,-11.23773 10.52398,-16.40744 l 1.72581,-2.05529 5.17919,6.94336 c 1.50608,2.01945 3.03077,4.31572 4.26747,6.37679 1.2367,2.06107 2.18882,3.90807 2.53468,4.94385 0.4112,1.23142 0.83071,3.83633 1.19587,7.58487 0.36516,3.74854 0.68797,8.66085 0.9553,14.60667 0.42125,9.36937 0.77671,14.85548 1.5114,18.80964 0.73468,3.95417 1.86514,6.37527 3.77064,9.48502 4.55698,7.43688 10.77183,12.22172 17.25117,13.93377 6.47935,1.71204 13.22377,0.32444 18.71377,-4.50804 9.14359,-8.04851 11.06749,-22.81221 4.69457,-35.29902 -1.42835,-2.79861 -3.20134,-5.14117 -6.37158,-7.94398 -3.17023,-2.8028 -7.73782,-6.08158 -14.8176,-10.82731 -7.58475,-5.0842 -12.15931,-8.46452 -15.22204,-11.70241 -3.06272,-3.23791 -4.63997,-6.33366 -6.26697,-10.97375 -1.38162,-3.94029 -3.49622,-9.38537 -4.71723,-12.14346 l -2.12327,-4.79742 3.92056,-9.58088 c 9.08886,-22.20671 16.6223,-43.63198 21.40534,-60.15076 2.39151,-8.25938 4.09567,-15.29015 4.96302,-20.59298 0.43367,-2.65142 0.66032,-4.86986 0.65372,-6.60865 -0.006,-1.73879 -0.20989,-3.00308 -0.8141,-3.79505 -0.0981,-0.12856 -0.23506,-0.25398 -0.42186,-0.31727 -0.18681,-0.0633 -0.40063,-0.0443 -0.57528,0.0244 -0.34928,0.13744 -0.62004,0.41418 -0.9675,0.85245 -0.69492,0.87653 -1.64305,2.46192 -3.08729,5.16175 -2.88848,5.39965 -7.72344,15.23229 -16.0466,32.38082 -5.27654,10.87149 -10.15591,20.79451 -13.76641,28.0227 -1.80526,3.6141 -3.294,6.55467 -4.35464,8.60119 -0.53031,1.02326 -0.95413,1.82352 -1.25514,2.36907 -0.0774,0.14027 -0.12245,0.21345 -0.18304,0.31902 -0.0461,-0.0732 -0.0708,-0.10586 -0.12551,-0.19699 -0.29974,-0.49921 -0.72682,-1.26181 -1.26037,-2.25054 -1.06711,-1.97742 -2.567,-4.8661 -4.38602,-8.44777 -3.63801,-7.16334 -8.55545,-17.09656 -13.8745,-28.06628 -8.39653,-17.31658 -13.27013,-27.23896 -16.17908,-32.6859 -1.45448,-2.72347 -2.40862,-4.32219 -3.10646,-5.20533 -0.34893,-0.44157 -0.62113,-0.72076 -0.97099,-0.85942 -0.17493,-0.0693 -0.38785,-0.0896 -0.57527,-0.0261 z m 0.28241,0.88905 c 0.0712,0.037 0.27305,0.1821 0.56306,0.54912 0.61548,0.77892 1.57338,2.36539 3.01931,5.07286 2.89185,5.41492 7.76761,15.3395 16.16338,32.6545 5.32101,10.97378 10.24144,20.91122 13.88323,28.08197 1.82089,3.58539 3.32095,6.47893 4.39473,8.46871 0.53688,0.99489 0.9677,1.7614 1.28129,2.28365 0.15678,0.26113 0.28237,0.46065 0.38873,0.60665 0.0532,0.073 0.0971,0.13001 0.16039,0.19176 0.0316,0.0309 0.0652,0.0654 0.13771,0.10459 0.0725,0.0392 0.2402,0.10478 0.43233,0.0122 0.12068,-0.0582 0.13481,-0.0951 0.16212,-0.12551 0.0273,-0.0303 0.0477,-0.0555 0.068,-0.0836 0.0407,-0.0563 0.0821,-0.12127 0.13075,-0.20047 0.0972,-0.15841 0.22072,-0.37449 0.37479,-0.65373 0.30815,-0.55848 0.73339,-1.36307 1.2656,-2.38999 1.06442,-2.05383 2.55522,-4.99702 4.36161,-8.61338 3.61277,-7.23273 8.49213,-17.15741 13.76991,-28.03142 8.32239,-17.14696 13.15965,-26.98375 16.0309,-32.35118 1.43562,-2.68373 2.38808,-4.25553 3.00013,-5.02754 0.29099,-0.36704 0.49643,-0.51473 0.56481,-0.54912 0.35333,0.47897 0.61612,1.59252 0.62235,3.23373 0.006,1.65818 -0.21275,3.84075 -0.64152,6.46222 -0.85755,5.24293 -2.55325,12.25023 -4.93863,20.48838 -4.77073,16.47631 -12.29583,37.87966 -21.37395,60.0601 l -4.06525,9.93303 2.27668,5.14432 c 1.19921,2.70886 3.31865,8.16314 4.69108,12.07722 1.64593,4.69411 3.30652,7.95842 6.46047,11.29276 3.15395,3.33434 7.77503,6.73788 15.3737,11.83142 7.06927,4.73867 11.61349,8.00456 14.72347,10.75409 3.10998,2.74953 4.78285,4.96752 6.16761,7.68075 6.21025,12.16806 4.29211,26.49257 -4.49061,34.22343 -5.28277,4.65009 -11.67615,5.95761 -17.89443,4.31455 -6.21828,-1.64308 -12.26058,-6.26232 -16.71775,-13.53632 -1.88074,-3.06934 -2.93863,-5.323 -3.65559,-9.18169 -0.71695,-3.85868 -1.07651,-9.32531 -1.49744,-18.68761 -0.26779,-5.95598 -0.59126,-10.87911 -0.95879,-14.65199 -0.36753,-3.7729 -0.76747,-6.37365 -1.2377,-7.78186 -0.39803,-1.19198 -1.3621,-3.03379 -2.61488,-5.12167 -1.25278,-2.08787 -2.79085,-4.40227 -4.31802,-6.45001 l -5.85208,-7.84635 -2.45101,2.91819 c -4.41146,5.24875 -9.3542,12.9195 -10.68262,16.68462 -0.47032,1.33305 -0.85814,3.83508 -1.21504,7.55175 -0.35691,3.71667 -0.66802,8.62398 -0.92916,14.6485 -0.42119,9.71707 -0.76167,15.19564 -1.54451,19.08857 -0.78284,3.89293 -1.9915,6.21448 -4.22912,9.74649 -6.459,10.19538 -17.39558,15.26676 -26.90528,12.59671 -1.66779,-0.46827 -4.95808,-2.43694 -7.06538,-4.29188 -8.783136,-7.7312 -10.70098,-22.05513 -4.4906,-34.22343 1.38146,-2.70676 3.05234,-4.92282 6.15017,-7.6668 3.09784,-2.74399 7.62107,-6.0016 14.64851,-10.72097 8.1195,-5.45277 12.65501,-8.68669 15.72757,-12.07025 3.07257,-3.38355 4.63573,-6.88919 6.79344,-12.75883 1.91891,-5.22003 4.15869,-10.78413 4.89678,-12.21144 0.35347,-0.68352 0.64613,-1.27636 0.73566,-2.04658 0.0895,-0.77021 -0.0253,-1.67543 -0.39572,-3.01756 -0.74091,-2.68426 -2.5224,-7.18222 -6.04733,-16.05008 -8.15967,-20.52776 -14.83093,-40.06904 -19.0136,-55.04826 -2.09133,-7.48961 -3.56045,-13.84073 -4.28315,-18.59 -0.36136,-2.37463 -0.53485,-4.34975 -0.51078,-5.85208 0.0238,-1.48734 0.27799,-2.48846 0.59968,-2.92517 z m 77.38797,151.24067 c -2.32983,-0.0791 -4.65038,0.51649 -6.77076,1.93848 -6.61741,4.43781 -9.08235,14.48999 -5.94971,23.68377 1.97792,5.80487 6.02659,10.23444 10.58674,12.49907 4.56015,2.26464 9.67705,2.35525 13.65137,-0.58747 3.59008,-2.65822 6.20487,-7.0203 6.87014,-11.45662 1.19512,-7.96963 -2.25382,-15.84683 -7.39835,-20.83007 -2.57226,-2.49161 -5.57619,-4.26667 -8.66393,-4.94907 -0.77194,-0.1706 -1.54889,-0.27175 -2.3255,-0.29809 z m -75.04157,0.0505 c -3.28921,0.13471 -6.4303,1.60735 -9.69594,4.48189 -5.68478,5.00395 -8.28688,10.71835 -8.26125,18.14895 0.0216,6.26156 1.43908,10.03493 5.09029,13.44393 2.26498,2.11474 4.61117,3.36015 7.13511,3.69917 2.52394,0.33901 5.19901,-0.22894 8.1183,-1.64215 7.77419,-3.76341 11.81799,-12.35174 12.04932,-20.41168 0.11568,-4.02997 -0.72021,-7.94111 -2.55559,-11.07659 -1.83538,-3.13548 -4.68979,-5.49119 -8.53146,-6.33496 -1.13939,-0.25026 -2.25237,-0.35346 -3.34878,-0.30856 z m 0.0245,0.88034 c 1.02071,-0.0376 2.06007,0.0643 3.13261,0.29984 3.59434,0.78945 6.22151,2.95737 7.9527,5.91484 1.73117,2.95747 2.54696,6.70935 2.43531,10.59895 -0.22328,7.77917 -4.14482,16.05072 -11.54727,19.63419 -2.81188,1.3612 -5.29937,1.87244 -7.61102,1.56195 -2.31165,-0.3105 -4.47638,-1.44231 -6.64526,-3.46732 -3.50034,-3.26814 -4.78493,-6.66248 -4.80613,-12.79544 -0.0249,-7.22399 2.4222,-12.60157 7.95793,-17.47431 3.16882,-2.78932 6.06896,-4.15986 9.13113,-4.2727 z m 72.84856,0.0959 c 1.41268,-0.23734 2.85851,-0.17615 4.30234,0.14294 2.88765,0.63819 5.75868,2.3219 8.23335,4.71897 4.94934,4.79417 8.28334,12.4224 7.1386,20.05607 -0.62675,4.17943 -3.14035,8.36867 -6.51974,10.87089 -3.67406,2.72038 -8.39122,2.65725 -12.72397,0.50554 -4.33274,-2.1517 -8.23446,-6.40297 -10.13698,-11.98657 -3.02202,-8.86913 -0.57776,-18.50865 5.6028,-22.6535 1.31167,-0.87964 2.69091,-1.41699 4.1036,-1.65434 z"
       id="path4154"
       inkscape:connector-curvature="0"
       inkscape:export-xdpi="90"
       inkscape:export-ydpi="90" />
  </g>
</svg>
